{
.appVersion = "3133";
DisplayStrings = (
"ABCDEFGHIJK\012LMNOPQRSTU\012VWXYZ(.,;:)&!?\0121234567890$\012H-/endash/emdash HHHHHH\012G891/space 32-Teeth\0123d-Render512\012"
);
copyright = "Copyright 2022 Eli Heuer (https://github.com/eliheuer/GTL001) with RFN GTL001";
customParameters = (
{
name = fsType;
value = (
);
},
{
name = "Disable Last Change";
value = 1;
},
{
name = "Use Typo Metrics";
value = 1;
},
{
name = "Use Line Breaks";
value = 1;
},
{
name = "Enforce Compatibility Check";
value = 0;
},
{
name = licenseURL;
value = "https://scripts.sil.org/OFL";
},
{
name = license;
value = "This Font Software is licensed under the SIL Open Font License, Version 1.1. This license is available with a FAQ at: https://scripts.sil.org/OFL";
},
{
name = vendorID;
value = GTL;
}
);
date = "2022-07-05 04:49:23 +0000";
designer = "Eli Heuer";
designerURL = "https://elih.blog";
disablesNiceNames = 1;
familyName = GTL001;
fontMaster = (
{
ascender = 700;
capHeight = 700;
customParameters = (
{
name = hheaAscender;
value = 1200;
},
{
name = hheaDescender;
value = -200;
},
{
name = hheaLineGap;
value = 0;
},
{
name = typoAscender;
value = 1200;
},
{
name = typoDescender;
value = -200;
},
{
name = typoLineGap;
value = 0;
},
{
name = underlinePosition;
value = -50;
},
{
name = winAscent;
value = 710;
},
{
name = winDescent;
value = 200;
}
);
descender = -200;
id = master01;
visible = 1;
xHeight = 500;
}
);
glyphs = (
{
color = 5;
glyphname = A;
layers = (
{
layerId = master01;
paths = (
{
closed = 1;
nodes = (
"225 0 LINE",
"235 10 LINE",
"235 340 LINE",
"245 350 LINE",
"255 350 LINE",
"265 340 LINE",
"265 10 LINE",
"275 0 LINE",
"475 0 LINE",
"495 20 LINE",
"495 40 LINE",
"270 690 LINE",
"260 700 LINE",
"240 700 LINE",
"230 690 LINE",
"5 40 LINE",
"5 20 LINE",
"25 0 LINE"
);
}
);
width = 500;
},
{
associatedMasterId = master01;
layerId = "0DA5F136-996A-4481-9F66-E80EDB52DA02";
name = "Jul 27, 22, 14:09";
paths = (
{
closed = 1;
nodes = (
"279 0 LINE",
"289 10 LINE",
"289 340 LINE",
"299 350 LINE",
"309 350 LINE",
"319 340 LINE",
"319 10 LINE",
"329 0 LINE",
"578 0 LINE",
"598 20 LINE",
"598 40 LINE",
"324 690 LINE",
"314 700 LINE",
"294 700 LINE",
"284 690 LINE",
"10 40 LINE",
"10 20 LINE",
"30 0 LINE"
);
}
);
width = 608;
}
);
leftKerningGroup = A;
rightKerningGroup = A;
unicode = 0041;
},
{
color = 5;
glyphname = B;
layers = (
{
layerId = master01;
paths = (
{
closed = 1;
nodes = (
"298 0 LINE SMOOTH",
"487 0 OFFCURVE",
"546 104 OFFCURVE",
"546 213 CURVE SMOOTH",
"546 316 OFFCURVE",
"489 380 OFFCURVE",
"436 413 CURVE",
"430 423 LINE",
"436 433 LINE",
"476 456 OFFCURVE",
"500 488 OFFCURVE",
"500 544 CURVE SMOOTH",
"500 639 OFFCURVE",
"434 700 OFFCURVE",
"280 700 CURVE SMOOTH",
"36 700 LINE",
"16 680 LINE",
"16 510 LINE",
"26 500 LINE",
"217 500 LINE",
"227 490 LINE",
"227 485 LINE",
"217 475 LINE",
"26 475 LINE",
"16 465 LINE",
"16 385 LINE",
"26 375 LINE",
"247 375 LINE",
"257 365 LINE",
"257 360 LINE",
"247 350 LINE",
"26 350 LINE",
"16 340 LINE",
"15 20 LINE",
"35 0 LINE"
);
}
);
width = 556;
}
);
leftKerningGroup = H;
rightKerningGroup = B;
unicode = 0042;
},
{
color = 5;
glyphname = C;
layers = (
{
layerId = master01;
paths = (
{
closed = 1;
nodes = (
"546 -10 OFFCURVE",
"668 164 OFFCURVE",
"668 299 CURVE SMOOTH",
"668 319 LINE",
"648 339 LINE",
"368 340 LINE",
"363 350 LINE",
"368 360 LINE",
"638 500 LINE",
"648 520 LINE",
"648 540 LINE",
"600 651 OFFCURVE",
"507 710 OFFCURVE",
"360 710 CURVE SMOOTH",
"170 710 OFFCURVE",
"10 540 OFFCURVE",
"10 350 CURVE SMOOTH",
"10 160 OFFCURVE",
"169 -10 OFFCURVE",
"360 -10 CURVE SMOOTH"
);
}
);
width = 678;
},
{
associatedMasterId = master01;
layerId = "D982E1AE-CA90-4FFC-9A0B-52673156A563";
name = "Jul 12, 22, 20:02";
paths = (
{
closed = 1;
nodes = (
"545 -10 OFFCURVE",
"643 159 OFFCURVE",
"663 249 CURVE",
"658 259 LINE",
"363 340 LINE",
"358 350 LINE",
"363 360 LINE",
"658 480 LINE",
"663 490 LINE",
"626 604 OFFCURVE",
"525 710 OFFCURVE",
"355 710 CURVE SMOOTH",
"165 710 OFFCURVE",
"5 540 OFFCURVE",
"5 350 CURVE SMOOTH",
"5 160 OFFCURVE",
"164 -10 OFFCURVE",
"355 -10 CURVE SMOOTH"
);
}
);
visible = 1;
width = 668;
},
{
associatedMasterId = master01;
layerId = "2C084B3B-93A1-47A4-A041-E05FD0850105";
name = "Jul 25, 22, 17:01";
paths = (
{
closed = 1;
nodes = (
"541 -10 OFFCURVE",
"640 137 OFFCURVE",
"663 229 CURVE",
"663 249 LINE",
"658 259 LINE",
"363 340 LINE",
"358 350 LINE",
"363 360 LINE",
"658 480 LINE",
"663 490 LINE",
"663 510 LINE",
"624 621 OFFCURVE",
"522 710 OFFCURVE",
"355 710 CURVE SMOOTH",
"165 710 OFFCURVE",
"5 540 OFFCURVE",
"5 350 CURVE SMOOTH",
"5 160 OFFCURVE",
"164 -10 OFFCURVE",
"355 -10 CURVE SMOOTH"
);
}
);
visible = 1;
width = 668;
}
);
leftKerningGroup = O;
rightKerningGroup = C;
unicode = 0043;
},
{
color = 5;
glyphname = D;
layers = (
{
layerId = master01;
paths = (
{
closed = 1;
nodes = (
"15 20 LINE",
"15 465 LINE",
"25 475 LINE",
"215 475 LINE",
"225 485 LINE",
"225 490 LINE",
"215 500 LINE",
"25 500 LINE",
"15 510 LINE",
"19 680 LINE",
"39 700 LINE",
"225 700 LINE SMOOTH",
"415 700 OFFCURVE",
"565 612 OFFCURVE",
"565 342 CURVE SMOOTH",
"565 96 OFFCURVE",
"415 0 OFFCURVE",
"225 0 CURVE SMOOTH",
"34 0 LINE"
);
}
);
width = 570;
}
);
leftKerningGroup = H;
rightKerningGroup = O;
unicode = 0044;
},
{
color = 5;
glyphname = E;
layers = (
{
layerId = master01;
paths = (
{
closed = 1;
nodes = (
"475 0 LINE",
"495 20 LINE",
"495 330 LINE",
"475 350 LINE",
"250 350 LINE",
"240 360 LINE",
"240 365 LINE",
"250 375 LINE",
"415 375 LINE",
"425 385 LINE",
"425 465 LINE",
"415 475 LINE",
"245 475 LINE",
"235 485 LINE",
"235 490 LINE",
"245 500 LINE",
"395 500 LINE",
"405 510 LINE",
"405 680 LINE",
"385 700 LINE",
"35 700 LINE",
"15 680 LINE",
"15 20 LINE",
"35 0 LINE"
);
}
);
width = 520;
}
);
leftKerningGroup = H;
rightKerningGroup = E;
unicode = 0045;
},
{
color = 5;
glyphname = F;
layers = (
{
layerId = master01;
paths = (
{
closed = 1;
nodes = (
"225 0 LINE",
"245 20 LINE",
"245 365 LINE",
"255 375 LINE",
"335 375 LINE",
"345 385 LINE",
"345 465 LINE",
"335 475 LINE",
"255 475 LINE",
"245 485 LINE",
"245 490 LINE",
"255 500 LINE",
"395 500 LINE",
"415 520 LINE",
"415 680 LINE",
"395 700 LINE",
"35 700 LINE",
"15 680 LINE",
"15 20 LINE",
"35 0 LINE"
);
}
);
width = 430;
}
);
leftKerningGroup = H;
rightKerningGroup = F;
unicode = 0046;
},
{
color = 5;
glyphname = G;
layers = (
{
layerId = master01;
paths = (
{
closed = 1;
nodes = (
"430 -10 OFFCURVE",
"490 10 OFFCURVE",
"560 70 CURVE",
"570 75 LINE",
"580 70 LINE",
"610 20 LINE",
"630 0 LINE",
"650 0 LINE",
"670 20 LINE",
"670 330 LINE",
"650 350 LINE",
"351 352 LINE",
"346 362 LINE",
"351 372 LINE",
"644 500 LINE",
"654 520 LINE",
"654 540 LINE",
"599 649 OFFCURVE",
"490 710 OFFCURVE",
"350 710 CURVE SMOOTH",
"123 710 OFFCURVE",
"10 540 OFFCURVE",
"10 349 CURVE SMOOTH",
"10 157 OFFCURVE",
"138 -10 OFFCURVE",
"349 -10 CURVE SMOOTH"
);
}
);
width = 685;
}
);
leftKerningGroup = O;
rightKerningGroup = G;
unicode = 0047;
},
{
color = 5;
glyphname = H;
layers = (
{
layerId = master01;
paths = (
{
closed = 1;
nodes = (
"235 0 LINE",
"245 10 LINE",
"245 340 LINE",
"255 350 LINE",
"265 350 LINE",
"275 340 LINE",
"275 10 LINE",
"285 0 LINE",
"485 0 LINE",
"505 20 LINE",
"505 680 LINE",
"485 700 LINE",
"285 700 LINE",
"275 690 LINE",
"275 510 LINE",
"265 500 LINE",
"255 500 LINE",
"245 510 LINE",
"245 690 LINE",
"235 700 LINE",
"35 700 LINE",
"15 680 LINE",
"15 20 LINE",
"35 0 LINE"
);
}
);
width = 520;
}
);
leftKerningGroup = H;
rightKerningGroup = H;
unicode = 0048;
},
{
color = 5;
glyphname = I;
layers = (
{
layerId = master01;
paths = (
{
closed = 1;
nodes = (
"225 0 LINE",
"245 20 LINE",
"245 680 LINE",
"225 700 LINE",
"35 700 LINE",
"15 680 LINE",
"15 20 LINE",
"35 0 LINE"
);
}
);
width = 260;
},
{
associatedMasterId = master01;
layerId = "0682E3DE-6743-44EB-A6B4-E44CD22A2DF5";
name = "Jul 27, 22, 18:10";
paths = (
{
closed = 1;
nodes = (
"345 0 LINE",
"365 20 LINE",
"365 330 LINE",
"345 350 LINE",
"315 350 LINE",
"305 360 LINE",
"305 490 LINE",
"315 500 LINE",
"345 500 LINE",
"365 520 LINE",
"365 680 LINE",
"345 700 LINE",
"35 700 LINE",
"15 680 LINE",
"15 520 LINE",
"35 500 LINE",
"65 500 LINE",
"75 490 LINE",
"75 360 LINE",
"65 350 LINE",
"35 350 LINE",
"15 330 LINE",
"15 20 LINE",
"35 0 LINE"
);
}
);
width = 380;
}
);
leftKerningGroup = H;
rightKerningGroup = H;
unicode = 0049;
},
{
color = 5;
glyphname = J;
layers = (
{
layerId = master01;
paths = (
{
closed = 1;
nodes = (
"431 -9 OFFCURVE",
"505 51 OFFCURVE",
"505 190 CURVE SMOOTH",
"505 680 LINE",
"485 700 LINE",
"295 700 LINE",
"275 680 LINE",
"275 190 LINE",
"265 180 LINE",
"255 180 LINE",
"245 190 LINE",
"245 340 LINE",
"235 350 LINE",
"35 350 LINE",
"15 330 LINE",
"15 180 LINE SMOOTH",
"15 51 OFFCURVE",
"126 -11 OFFCURVE",
"265 -10 CURVE SMOOTH"
);
}
);
width = 520;
}
);
leftKerningGroup = J;
rightKerningGroup = U;
unicode = 004A;
},
{
color = 5;
glyphname = K;
layers = (
{
layerId = master01;
paths = (
{
closed = 1;
nodes = (
"235 0 LINE",
"245 10 LINE",
"245 340 LINE",
"255 350 LINE",
"265 350 LINE",
"275 340 LINE",
"275 10 LINE",
"285 0 LINE",
"568 0 LINE",
"588 20 LINE",
"588 40 LINE",
"435 400 LINE",
"433 410 LINE",
"435 420 LINE",
"585 660 LINE",
"585 680 LINE",
"565 700 LINE",
"285 700 LINE",
"275 690 LINE",
"275 510 LINE",
"265 500 LINE",
"255 500 LINE",
"245 510 LINE",
"245 690 LINE",
"235 700 LINE",
"35 700 LINE",
"15 680 LINE",
"15 20 LINE",
"35 0 LINE"
);
}
);
width = 598;
}
);
leftKerningGroup = H;
rightKerningGroup = K;
unicode = 004B;
},
{
color = 5;
glyphname = L;
layers = (
{
layerId = master01;
paths = (
{
closed = 1;
nodes = (
"325 0 LINE",
"345 20 LINE",
"345 328 LINE",
"325 350 LINE",
"255 350 LINE",
"245 360 LINE",
"245 680 LINE",
"225 700 LINE",
"35 700 LINE",
"15 680 LINE",
"15 20 LINE",
"35 0 LINE"
);
}
);
width = 360;
}
);
leftKerningGroup = L;
rightKerningGroup = L;
unicode = 004C;
},
{
color = 5;
glyphname = M;
layers = (
{
layerId = master01;
paths = (
{
closed = 1;
nodes = (
"235 0 LINE",
"245 10 LINE",
"245 340 LINE",
"255 350 LINE",
"265 350 LINE",
"275 340 LINE",
"275 10 LINE",
"285 0 LINE",
"495 0 LINE",
"505 10 LINE",
"505 340 LINE",
"515 350 LINE",
"525 350 LINE",
"535 340 LINE",
"535 10 LINE",
"545 0 LINE",
"745 0 LINE",
"765 20 LINE",
"765 680 LINE",
"745 700 LINE",
"725 700 LINE",
"400 500 LINE",
"390 497 LINE",
"380 500 LINE",
"55 700 LINE",
"35 700 LINE",
"15 680 LINE",
"15 20 LINE",
"35 0 LINE"
);
}
);
width = 780;
}
);
leftKerningGroup = M;
rightKerningGroup = M;
unicode = 004D;
},
{
color = 5;
glyphname = N;
layers = (
{
layerId = master01;
paths = (
{
closed = 1;
nodes = (
"235 0 LINE",
"245 10 LINE",
"245 340 LINE",
"255 350 LINE",
"265 350 LINE",
"275 340 LINE",
"275 10 LINE",
"285 0 LINE",
"485 0 LINE",
"505 20 LINE",
"505 680 LINE",
"485 700 LINE",
"295 700 LINE",
"275 680 LINE",
"275 510 LINE",
"265 500 LINE",
"255 497 LINE",
"245 500 LINE",
"55 700 LINE",
"35 700 LINE",
"15 680 LINE",
"15 20 LINE",
"35 0 LINE"
);
}
);
width = 520;
}
);
leftKerningGroup = N;
rightKerningGroup = N;
unicode = 004E;
},
{
color = 5;
glyphname = O;
layers = (
{
layerId = master01;
paths = (
{
closed = 1;
nodes = (
"540 -13 OFFCURVE",
"690 160 OFFCURVE",
"690 350 CURVE SMOOTH",
"690 540 OFFCURVE",
"540 710 OFFCURVE",
"350 710 CURVE SMOOTH",
"140 710 OFFCURVE",
"10 540 OFFCURVE",
"10 350 CURVE SMOOTH",
"10 160 OFFCURVE",
"140 -7 OFFCURVE",
"350 -10 CURVE SMOOTH"
);
}
);
width = 700;
}
);
leftKerningGroup = O;
rightKerningGroup = O;
unicode = 004F;
},
{
color = 5;
glyphname = P;
layers = (
{
layerId = master01;
paths = (
{
closed = 1;
nodes = (
"225 0 LINE",
"245 20 LINE",
"245 340 LINE",
"255 350 LINE",
"335 350 OFFCURVE",
"405 410 OFFCURVE",
"405 520 CURVE SMOOTH",
"405 620 OFFCURVE",
"335 700 OFFCURVE",
"205 700 CURVE SMOOTH",
"35 700 LINE",
"15 680 LINE",
"15 510 LINE",
"25 500 LINE",
"235 500 LINE",
"245 490 LINE",
"245 485 LINE",
"235 475 LINE",
"25 475 LINE",
"15 465 LINE",
"15 20 LINE",
"35 0 LINE"
);
}
);
width = 410;
}
);
leftKerningGroup = P;
rightKerningGroup = P;
unicode = 0050;
},
{
color = 5;
glyphname = Q;
layers = (
{
layerId = master01;
paths = (
{
closed = 1;
nodes = (
"675 0 LINE",
"695 20 LINE",
"695 40 LINE",
"592 111 LINE",
"587 121 LINE",
"592 131 LINE",
"642 177 OFFCURVE",
"685 274 OFFCURVE",
"685 353 CURVE SMOOTH",
"685 554 OFFCURVE",
"571 710 OFFCURVE",
"355 710 CURVE SMOOTH",
"139 710 OFFCURVE",
"15 554 OFFCURVE",
"15 353 CURVE SMOOTH",
"15 151 OFFCURVE",
"165 0 OFFCURVE",
"395 0 CURVE SMOOTH"
);
}
);
width = 710;
}
);
leftKerningGroup = O;
rightKerningGroup = O;
unicode = 0051;
},
{
color = 5;
glyphname = R;
layers = (
{
layerId = master01;
paths = (
{
closed = 1;
nodes = (
"235 0 LINE",
"245 10 LINE",
"245 290 LINE",
"255 300 LINE",
"265 300 LINE",
"275 290 LINE",
"275 10 LINE",
"285 0 LINE",
"485 0 LINE",
"505 20 LINE",
"505 40 LINE",
"425 290 LINE",
"423 300 LINE",
"425 310 LINE",
"475 350 OFFCURVE",
"505 397 OFFCURVE",
"505 470 CURVE SMOOTH",
"505 610 OFFCURVE",
"435 700 OFFCURVE",
"255 700 CURVE SMOOTH",
"35 700 LINE",
"15 680 LINE",
"15 510 LINE",
"25 500 LINE",
"235 500 LINE",
"245 490 LINE",
"245 485 LINE",
"235 475 LINE",
"25 475 LINE",
"15 465 LINE",
"15 20 LINE",
"35 0 LINE"
);
}
);
width = 510;
}
);
leftKerningGroup = R;
rightKerningGroup = R;
unicode = 0052;
},
{
color = 5;
glyphname = S;
layers = (
{
layerId = master01;
paths = (
{
closed = 1;
nodes = (
"393 -10 OFFCURVE",
"485 116 OFFCURVE",
"485 226 CURVE SMOOTH",
"485 342 OFFCURVE",
"436 416 OFFCURVE",
"346 487 CURVE",
"341 497 LINE",
"346 507 LINE",
"420 557 LINE",
"425 567 LINE",
"425 587 LINE",
"396 667 OFFCURVE",
"341 710 OFFCURVE",
"236 710 CURVE SMOOTH",
"112 710 OFFCURVE",
"15 619 OFFCURVE",
"15 506 CURVE SMOOTH",
"15 420 OFFCURVE",
"48 356 OFFCURVE",
"98 313 CURVE",
"103 303 LINE",
"98 293 LINE",
"9 242 LINE",
"5 232 LINE",
"5 212 LINE",
"5 97 OFFCURVE",
"110 -10 OFFCURVE",
"243 -10 CURVE SMOOTH"
);
},
{
closed = 0;
nodes = (
"-70 580 LINE"
);
}
);
width = 490;
}
);
leftKerningGroup = S;
rightKerningGroup = S;
unicode = 0053;
},
{
color = 5;
glyphname = T;
layers = (
{
layerId = master01;
paths = (
{
closed = 1;
nodes = (
"325 0 LINE",
"345 20 LINE",
"345 490 LINE",
"355 500 LINE",
"425 500 LINE",
"445 520 LINE",
"445 680 LINE",
"425 699 LINE",
"35 700 LINE",
"15 680 LINE",
"15 520 LINE",
"35 500 LINE",
"105 500 LINE",
"115 490 LINE",
"115 20 LINE",
"135 0 LINE"
);
}
);
width = 460;
}
);
leftKerningGroup = T;
rightKerningGroup = T;
unicode = 0054;
},
{
color = 5;
glyphname = U;
layers = (
{
layerId = master01;
paths = (
{
closed = 1;
nodes = (
"405 -11 OFFCURVE",
"495 40 OFFCURVE",
"495 210 CURVE SMOOTH",
"495 680 LINE",
"475 700 LINE",
"280 700 LINE",
"270 690 LINE",
"270 510 LINE",
"260 500 LINE",
"250 500 LINE",
"240 510 LINE",
"240 690 LINE",
"230 700 LINE",
"35 700 LINE",
"15 680 LINE",
"15 210 LINE SMOOTH",
"15 40 OFFCURVE",
"105 -9 OFFCURVE",
"255 -10 CURVE SMOOTH"
);
}
);
width = 510;
}
);
leftKerningGroup = U;
rightKerningGroup = U;
unicode = 0055;
},
{
color = 5;
glyphname = V;
layers = (
{
layerId = master01;
paths = (
{
closed = 1;
nodes = (
"15 680 LINE",
"15 660 LINE",
"240 10 LINE",
"250 0 LINE",
"270 0 LINE",
"280 10 LINE",
"505 660 LINE",
"505 680 LINE",
"485 700 LINE",
"285 700 LINE",
"275 690 LINE",
"275 510 LINE",
"265 500 LINE",
"255 500 LINE",
"245 510 LINE",
"245 690 LINE",
"235 700 LINE",
"35 700 LINE"
);
}
);
width = 520;
}
);
leftKerningGroup = V;
rightKerningGroup = V;
unicode = 0056;
},
{
color = 5;
glyphname = W;
layers = (
{
layerId = master01;
paths = (
{
closed = 1;
nodes = (
"270 0 LINE",
"280 10 LINE",
"380 299 LINE",
"390 304 LINE",
"400 299 LINE",
"500 10 LINE",
"510 0 LINE",
"530 0 LINE",
"540 10 LINE",
"765 660 LINE",
"765 680 LINE",
"745 700 LINE",
"545 700 LINE",
"535 690 LINE",
"535 510 LINE",
"525 500 LINE",
"515 500 LINE",
"505 510 LINE",
"505 690 LINE",
"495 700 LINE",
"285 700 LINE",
"275 690 LINE",
"275 510 LINE",
"265 500 LINE",
"255 500 LINE",
"245 510 LINE",
"245 690 LINE",
"235 700 LINE",
"35 700 LINE",
"15 680 LINE",
"15 660 LINE",
"240 10 LINE",
"250 0 LINE"
);
}
);
width = 780;
},
{
associatedMasterId = master01;
layerId = "C64F7B5D-6CE5-4F6A-863C-9EF738B83AAB";
name = "Jul 27, 22, 16:45";
paths = (
{
closed = 1;
nodes = (
"50 680 LINE",
"50 660 LINE",
"275 10 LINE",
"285 0 LINE",
"305 0 LINE",
"315 10 LINE",
"540 660 LINE",
"540 680 LINE",
"520 700 LINE",
"320 700 LINE",
"310 690 LINE",
"310 510 LINE",
"300 500 LINE",
"290 500 LINE",
"280 510 LINE",
"280 690 LINE",
"270 700 LINE",
"70 700 LINE"
);
},
{
closed = 1;
nodes = (
"310 680 LINE",
"310 660 LINE",
"535 10 LINE",
"545 0 LINE",
"565 0 LINE",
"575 10 LINE",
"800 660 LINE",
"800 680 LINE",
"780 700 LINE",
"580 700 LINE",
"570 690 LINE",
"570 510 LINE",
"560 500 LINE",
"550 500 LINE",
"540 510 LINE",
"540 690 LINE",
"530 700 LINE",
"330 700 LINE"
);
}
);
visible = 1;
width = 850;
}
);
leftKerningGroup = W;
rightKerningGroup = W;
unicode = 0057;
},
{
color = 5;
glyphname = X;
layers = (
{
layerId = master01;
paths = (
{
closed = 1;
nodes = (
"280 0 LINE",
"290 10 LINE",
"290 340 LINE",
"300 350 LINE",
"310 350 LINE",
"320 340 LINE",
"320 10 LINE",
"330 0 LINE",
"575 0 LINE",
"595 20 LINE",
"595 40 LINE",
"477 415 LINE",
"475 425 LINE",
"477 435 LINE",
"595 660 LINE",
"595 680 LINE",
"575 700 LINE",
"330 700 LINE",
"320 690 LINE",
"320 510 LINE",
"310 500 LINE",
"300 500 LINE",
"290 510 LINE",
"290 690 LINE",
"280 700 LINE",
"35 700 LINE",
"15 680 LINE",
"15 660 LINE",
"133 435 LINE",
"135 425 LINE",
"133 415 LINE",
"15 40 LINE",
"15 20 LINE",
"35 0 LINE"
);
}
);
width = 610;
}
);
leftKerningGroup = X;
rightKerningGroup = X;
unicode = 0058;
},
{
color = 5;
glyphname = Y;
layers = (
{
layerId = master01;
paths = (
{
closed = 1;
nodes = (
"315 0 LINE",
"335 20 LINE",
"335 350 LINE",
"337 360 LINE",
"435 660 LINE",
"435 680 LINE",
"415 700 LINE",
"245 700 LINE",
"235 690 LINE",
"235 510 LINE",
"225 500 LINE",
"215 500 LINE",
"205 510 LINE",
"205 690 LINE",
"195 700 LINE",
"25 700 LINE",
"5 680 LINE",
"5 660 LINE",
"103 360 LINE",
"105 350 LINE",
"105 20 LINE",
"125 0 LINE"
);
}
);
width = 440;
}
);
leftKerningGroup = Y;
rightKerningGroup = Y;
unicode = 0059;
},
{
color = 5;
glyphname = Z;
layers = (
{
layerId = master01;
paths = (
{
closed = 1;
nodes = (
"495 0 LINE",
"515 20 LINE",
"515 330 LINE",
"495 350 LINE",
"366 350 LINE",
"356 360 LINE",
"356 370 LINE",
"515 660 LINE",
"515 680 LINE",
"495 700 LINE",
"55 700 LINE",
"35 680 LINE",
"35 520 LINE",
"55 500 LINE",
"246 500 LINE",
"256 490 LINE",
"256 480 LINE",
"15 40 LINE",
"15 20 LINE",
"35 0 LINE"
);
}
);
width = 530;
}
);
leftKerningGroup = Z;
rightKerningGroup = Z;
unicode = 005A;
},
{
color = 5;
glyphname = zero;
layers = (
{
layerId = master01;
paths = (
{
closed = 1;
nodes = (
"540 -13 OFFCURVE",
"690 160 OFFCURVE",
"690 350 CURVE SMOOTH",
"690 540 OFFCURVE",
"540 710 OFFCURVE",
"350 710 CURVE SMOOTH",
"140 710 OFFCURVE",
"10 540 OFFCURVE",
"10 350 CURVE SMOOTH",
"10 160 OFFCURVE",
"140 -7 OFFCURVE",
"350 -10 CURVE SMOOTH"
);
},
{
closed = 1;
nodes = (
"341 333 OFFCURVE",
"335 341 OFFCURVE",
"335 350 CURVE SMOOTH",
"335 359 OFFCURVE",
"341 366 OFFCURVE",
"350 366 CURVE SMOOTH",
"359 366 OFFCURVE",
"365 359 OFFCURVE",
"365 350 CURVE SMOOTH",
"365 341 OFFCURVE",
"358 333 OFFCURVE",
"350 334 CURVE SMOOTH"
);
}
);
width = 700;
}
);
leftKerningGroup = "0";
rightKerningGroup = "0";
unicode = 0030;
},
{
color = 5;
glyphname = one;
layers = (
{
layerId = master01;
paths = (
{
closed = 1;
nodes = (
"325 0 LINE",
"345 20 LINE",
"345 680 LINE",
"325 700 LINE",
"35 700 LINE",
"15 680 LINE",
"15 520 LINE",
"35 500 LINE",
"105 500 LINE",
"115 490 LINE",
"115 20 LINE",
"135 0 LINE"
);
}
);
width = 360;
}
);
leftKerningGroup = "1";
rightKerningGroup = "1";
unicode = 0031;
},
{
color = 5;
glyphname = two;
layers = (
{
layerId = master01;
paths = (
{
closed = 1;
nodes = (
"435 0 LINE",
"455 20 LINE",
"455 330 LINE",
"435 350 LINE",
"335 350 LINE",
"325 360 LINE",
"325 370 LINE",
"352 415 LINE SMOOTH",
"375 453 OFFCURVE",
"400 487 OFFCURVE",
"400 540 CURVE SMOOTH",
"400 618 OFFCURVE",
"354 710 OFFCURVE",
"215 710 CURVE SMOOTH",
"77 710 OFFCURVE",
"15 618 OFFCURVE",
"15 475 CURVE SMOOTH",
"15 395 LINE",
"35 375 LINE",
"165 375 LINE",
"175 365 LINE",
"175 355 LINE",
"25 40 LINE",
"25 20 LINE",
"45 0 LINE"
);
}
);
width = 470;
}
);
leftKerningGroup = "2";
rightKerningGroup = "2";
unicode = 0032;
},
{
color = 5;
glyphname = three;
layers = (
{
layerId = master01;
paths = (
{
closed = 1;
nodes = (
"484 -10 OFFCURVE",
"555 79 OFFCURVE",
"555 211 CURVE SMOOTH",
"555 257 OFFCURVE",
"514 363 OFFCURVE",
"424 394 CURVE",
"419 404 LINE",
"424 414 LINE",
"465 434 OFFCURVE",
"504 473 OFFCURVE",
"504 530 CURVE SMOOTH",
"504 624 OFFCURVE",
"450 710 OFFCURVE",
"315 710 CURVE SMOOTH",
"180 710 OFFCURVE",
"124 637 OFFCURVE",
"124 530 CURVE SMOOTH",
"124 510 LINE",
"134 500 LINE",
"297 500 LINE",
"307 490 LINE",
"307 485 LINE",
"297 475 LINE",
"134 475 LINE",
"124 465 LINE",
"124 385 LINE",
"134 375 LINE",
"314 375 LINE",
"324 365 LINE",
"324 360 LINE",
"314 350 LINE",
"36 350 LINE",
"15 330 LINE",
"15 280 LINE SMOOTH",
"15 49 OFFCURVE",
"125 -10 OFFCURVE",
"315 -10 CURVE SMOOTH"
);
}
);
width = 570;
}
);
leftKerningGroup = "3";
rightKerningGroup = "3";
unicode = 0033;
},
{
color = 5;
glyphname = four;
layers = (
{
layerId = master01;
paths = (
{
closed = 1;
nodes = (
"375 0 LINE",
"395 20 LINE",
"395 465 LINE",
"385 475 LINE",
"285 475 LINE",
"275 485 LINE",
"275 490 LINE",
"285 500 LINE",
"385 500 LINE",
"395 510 LINE",
"395 680 LINE",
"375 700 LINE",
"195 700 LINE",
"175 680 LINE",
"55 415 LINE",
"55 395 LINE",
"75 375 LINE",
"155 375 LINE",
"165 365 LINE",
"165 20 LINE",
"185 0 LINE"
);
}
);
width = 410;
}
);
leftKerningGroup = "4";
rightKerningGroup = "4";
unicode = 0034;
},
{
color = 5;
glyphname = five;
layers = (
{
layerId = master01;
paths = (
{
closed = 1;
nodes = (
"417 -15 OFFCURVE",
"545 55 OFFCURVE",
"545 230 CURVE SMOOTH",
"545 361 OFFCURVE",
"458 475 OFFCURVE",
"305 475 CURVE",
"295 485 LINE",
"295 490 LINE",
"305 500 LINE",
"455 500 LINE",
"475 520 LINE",
"475 680 LINE",
"455 700 LINE",
"145 700 LINE",
"125 680 LINE",
"125 385 LINE",
"135 375 LINE",
"285 375 LINE",
"295 365 LINE",
"295 360 LINE",
"285 350 LINE",
"35 350 LINE",
"15 330 LINE",
"15 260 LINE SMOOTH",
"15 53 OFFCURVE",
"152 -15 OFFCURVE",
"274 -15 CURVE SMOOTH"
);
}
);
width = 560;
}
);
leftKerningGroup = "5";
rightKerningGroup = "5";
unicode = 0035;
},
{
color = 5;
glyphname = six;
layers = (
{
layerId = master01;
paths = (
{
closed = 1;
nodes = (
"413 -10 OFFCURVE",
"540 52 OFFCURVE",
"540 219 CURVE SMOOTH",
"540 369 OFFCURVE",
"443 475 OFFCURVE",
"295 475 CURVE SMOOTH",
"209 475 LINE",
"199 485 LINE",
"199 490 LINE",
"209 500 LINE",
"380 500 LINE",
"400 520 LINE",
"400 680 LINE",
"380 700 LINE",
"298 700 LINE SMOOTH",
"169 700 OFFCURVE",
"10 582 OFFCURVE",
"10 379 CURVE SMOOTH",
"10 260 LINE SMOOTH",
"10 120 OFFCURVE",
"122 -10 OFFCURVE",
"280 -10 CURVE SMOOTH"
);
}
);
width = 550;
}
);
leftKerningGroup = "6";
rightKerningGroup = "6";
unicode = 0036;
},
{
color = 5;
glyphname = seven;
layers = (
{
layerId = master01;
paths = (
{
closed = 1;
nodes = (
"180 0 LINE",
"200 20 LINE",
"400 660 LINE",
"400 680 LINE",
"380 700 LINE",
"30 700 LINE",
"10 680 LINE",
"10 520 LINE",
"30 500 LINE",
"240 500 LINE",
"250 490 LINE",
"100 20 LINE",
"120 0 LINE"
);
}
);
width = 405;
}
);
leftKerningGroup = "7";
rightKerningGroup = "7";
unicode = 0037;
},
{
color = 5;
glyphname = eight;
layers = (
{
layerId = master01;
paths = (
{
closed = 1;
nodes = (
"423 -11 OFFCURVE",
"516 80 OFFCURVE",
"515 210 CURVE SMOOTH",
"514 371 OFFCURVE",
"413 475 OFFCURVE",
"290 475 CURVE",
"280 485 LINE",
"280 490 LINE",
"290 500 LINE",
"359 500 OFFCURVE",
"386 556 OFFCURVE",
"386 605 CURVE SMOOTH",
"386 664 OFFCURVE",
"345 710 OFFCURVE",
"265 710 CURVE SMOOTH",
"200 710 OFFCURVE",
"150 676 OFFCURVE",
"150 607 CURVE SMOOTH",
"150 558 OFFCURVE",
"177 500 OFFCURVE",
"240 500 CURVE",
"250 490 LINE",
"250 484 LINE",
"240 474 LINE",
"122 470 OFFCURVE",
"21 403 OFFCURVE",
"15 239 CURVE SMOOTH",
"8 53 OFFCURVE",
"128 -11 OFFCURVE",
"277 -11 CURVE SMOOTH"
);
}
);
width = 530;
}
);
leftKerningGroup = "8";
rightKerningGroup = "8";
unicode = 0038;
},
{
color = 5;
glyphname = nine;
layers = (
{
layerId = master01;
paths = (
{
closed = 1;
nodes = (
"158 0 LINE",
"266 321 LINE SMOOTH",
"302 417 OFFCURVE",
"330 486 OFFCURVE",
"329 543 CURVE SMOOTH",
"327 642 OFFCURVE",
"269 710 OFFCURVE",
"173 710 CURVE SMOOTH",
"62 710 OFFCURVE",
"0 647 OFFCURVE",
"0 547 CURVE SMOOTH",
"0 446 OFFCURVE",
"88 375 OFFCURVE",
"199 375 CURVE SMOOTH",
"67 0 LINE"
);
}
);
width = 339;
}
);
leftKerningGroup = "9";
rightKerningGroup = "9";
unicode = 0039;
},
{
color = 5;
glyphname = period;
layers = (
{
layerId = master01;
paths = (
{
closed = 1;
nodes = (
"165 -10 OFFCURVE",
"215 25 OFFCURVE",
"215 90 CURVE SMOOTH",
"215 145 OFFCURVE",
"165 180 OFFCURVE",
"115 180 CURVE SMOOTH",
"65 180 OFFCURVE",
"15 145 OFFCURVE",
"15 90 CURVE SMOOTH",
"15 25 OFFCURVE",
"65 -10 OFFCURVE",
"115 -10 CURVE SMOOTH"
);
}
);
width = 230;
}
);
leftKerningGroup = period;
rightKerningGroup = period;
unicode = 002E;
},
{
color = 5;
glyphname = comma;
layers = (
{
layerId = master01;
paths = (
{
closed = 1;
nodes = (
"151 -30 LINE",
"161 -20 LINE SMOOTH",
"188 7 OFFCURVE",
"215 49 OFFCURVE",
"215 90 CURVE SMOOTH",
"215 145 OFFCURVE",
"165 180 OFFCURVE",
"115 180 CURVE SMOOTH",
"65 180 OFFCURVE",
"15 145 OFFCURVE",
"15 90 CURVE SMOOTH",
"15 52 OFFCURVE",
"41 20 OFFCURVE",
"85 20 CURVE",
"95 10 LINE",
"85 -10 LINE",
"85 -20 LINE",
"95 -30 LINE"
);
}
);
width = 230;
}
);
leftKerningGroup = period;
rightKerningGroup = period;
unicode = 002C;
},
{
color = 5;
glyphname = colon;
layers = (
{
layerId = master01;
paths = (
{
closed = 1;
nodes = (
"165 -10 OFFCURVE",
"215 25 OFFCURVE",
"215 90 CURVE SMOOTH",
"215 145 OFFCURVE",
"165 180 OFFCURVE",
"115 180 CURVE SMOOTH",
"65 180 OFFCURVE",
"15 145 OFFCURVE",
"15 90 CURVE SMOOTH",
"15 25 OFFCURVE",
"65 -10 OFFCURVE",
"115 -10 CURVE SMOOTH"
);
},
{
closed = 1;
nodes = (
"178 229 OFFCURVE",
"215 270 OFFCURVE",
"215 330 CURVE SMOOTH",
"215 390 OFFCURVE",
"165 420 OFFCURVE",
"115 420 CURVE SMOOTH",
"65 420 OFFCURVE",
"15 390 OFFCURVE",
"15 330 CURVE SMOOTH",
"15 270 OFFCURVE",
"66 231 OFFCURVE",
"115 230 CURVE SMOOTH"
);
}
);
width = 230;
}
);
unicode = 003A;
},
{
color = 5;
glyphname = semicolon;
layers = (
{
layerId = master01;
paths = (
{
closed = 1;
nodes = (
"169 230 OFFCURVE",
"219 270 OFFCURVE",
"219 330 CURVE SMOOTH",
"219 390 OFFCURVE",
"169 420 OFFCURVE",
"119 420 CURVE SMOOTH",
"69 420 OFFCURVE",
"15 390 OFFCURVE",
"15 330 CURVE SMOOTH",
"15 270 OFFCURVE",
"70 230 OFFCURVE",
"119 230 CURVE SMOOTH"
);
},
{
closed = 1;
nodes = (
"151 -30 LINE",
"161 -20 LINE SMOOTH",
"188 7 OFFCURVE",
"215 49 OFFCURVE",
"215 90 CURVE SMOOTH",
"215 145 OFFCURVE",
"165 180 OFFCURVE",
"115 180 CURVE SMOOTH",
"65 180 OFFCURVE",
"15 145 OFFCURVE",
"15 90 CURVE SMOOTH",
"15 52 OFFCURVE",
"41 20 OFFCURVE",
"85 20 CURVE",
"95 10 LINE",
"85 -10 LINE",
"85 -20 LINE",
"95 -30 LINE"
);
}
);
width = 234;
}
);
leftKerningGroup = colon;
rightKerningGroup = colon;
unicode = 003B;
},
{
color = 5;
glyphname = exclam;
layers = (
{
layerId = master01;
paths = (
{
closed = 1;
nodes = (
"200 -10 OFFCURVE",
"250 25 OFFCURVE",
"250 90 CURVE SMOOTH",
"250 145 OFFCURVE",
"200 180 OFFCURVE",
"150 180 CURVE SMOOTH",
"100 180 OFFCURVE",
"50 145 OFFCURVE",
"50 90 CURVE SMOOTH",
"50 25 OFFCURVE",
"100 -10 OFFCURVE",
"150 -10 CURVE SMOOTH"
);
},
{
closed = 1;
nodes = (
"210 220 LINE",
"230 240 LINE",
"252 334 OFFCURVE",
"285 503 OFFCURVE",
"285 570 CURVE SMOOTH",
"285 650 OFFCURVE",
"225 710 OFFCURVE",
"150 710 CURVE SMOOTH",
"75 710 OFFCURVE",
"15 650 OFFCURVE",
"15 570 CURVE SMOOTH",
"15 502 OFFCURVE",
"59 333 OFFCURVE",
"80 240 CURVE",
"100 220 LINE"
);
}
);
width = 300;
}
);
leftKerningGroup = exclam;
rightKerningGroup = exclam;
unicode = 0021;
},
{
color = 5;
glyphname = question;
layers = (
{
layerId = master01;
paths = (
{
closed = 1;
nodes = (
"250 -10 OFFCURVE",
"300 25 OFFCURVE",
"300 90 CURVE SMOOTH",
"300 145 OFFCURVE",
"250 180 OFFCURVE",
"200 180 CURVE SMOOTH",
"150 180 OFFCURVE",
"100 145 OFFCURVE",
"100 90 CURVE SMOOTH",
"100 25 OFFCURVE",
"150 -10 OFFCURVE",
"200 -10 CURVE SMOOTH"
);
},
{
closed = 1;
nodes = (
"240 220 LINE",
"260 240 LINE",
"344 401 OFFCURVE",
"385 480 OFFCURVE",
"385 540 CURVE SMOOTH",
"385 640 OFFCURVE",
"330 710 OFFCURVE",
"210 710 CURVE SMOOTH",
"85 710 OFFCURVE",
"15 652 OFFCURVE",
"15 540 CURVE SMOOTH",
"15 520 LINE",
"35 500 LINE",
"190 500 LINE",
"200 490 LINE",
"140 240 LINE",
"160 220 LINE"
);
}
);
width = 400;
}
);
unicode = 003F;
},
{
color = 5;
glyphname = hyphen;
layers = (
{
layerId = master01;
paths = (
{
closed = 1;
nodes = (
"255 375 LINE",
"265 385 LINE",
"265 465 LINE",
"255 475 LINE",
"25 475 LINE",
"15 465 LINE",
"15 385 LINE",
"22 375 LINE"
);
}
);
width = 280;
}
);
leftKerningGroup = dash;
rightKerningGroup = dash;
unicode = 002D;
},
{
color = 5;
glyphname = endash;
layers = (
{
layerId = master01;
paths = (
{
closed = 1;
nodes = (
"545 375 LINE",
"555 385 LINE",
"555 465 LINE",
"545 475 LINE",
"25 475 LINE",
"15 465 LINE",
"15 385 LINE",
"22 375 LINE"
);
}
);
width = 570;
},
{
associatedMasterId = master01;
layerId = "026C2084-A9C0-4BCB-BCC1-6A91AB58419B";
name = "Jul 27, 22, 16:53";
paths = (
{
closed = 1;
nodes = (
"555 375 LINE",
"555 475 LINE",
"15 475 LINE",
"15 375 LINE"
);
}
);
visible = 1;
width = 570;
}
);
unicode = 2013;
},
{
color = 5;
glyphname = emdash;
layers = (
{
layerId = master01;
paths = (
{
closed = 1;
nodes = (
"755 375 LINE",
"765 385 LINE",
"765 465 LINE",
"755 475 LINE",
"25 475 LINE",
"15 465 LINE",
"15 385 LINE",
"22 375 LINE"
);
}
);
width = 780;
},
{
associatedMasterId = master01;
layerId = "BA63E671-4C72-48C8-8A53-433C2CD1F271";
name = "Jul 27, 22, 16:54";
paths = (
{
closed = 1;
nodes = (
"765 375 LINE",
"765 475 LINE",
"15 475 LINE",
"15 375 LINE"
);
}
);
visible = 1;
width = 780;
}
);
unicode = 2014;
},
{
color = 5;
glyphname = parenleft;
layers = (
{
layerId = master01;
paths = (
{
closed = 1;
nodes = (
"115 -10 OFFCURVE",
"15 148 OFFCURVE",
"15 350 CURVE SMOOTH",
"15 537 OFFCURVE",
"115 710 OFFCURVE",
"255 710 CURVE",
"275 690 LINE",
"275 10 LINE",
"255 -10 LINE"
);
}
);
width = 290;
}
);
unicode = 0028;
},
{
color = 5;
glyphname = parenright;
layers = (
{
layerId = master01;
paths = (
{
closed = 1;
nodes = (
"175 -10 OFFCURVE",
"275 120 OFFCURVE",
"275 350 CURVE SMOOTH",
"275 582 OFFCURVE",
"185 710 OFFCURVE",
"35 710 CURVE",
"15 690 LINE",
"15 10 LINE",
"35 -10 LINE"
);
}
);
width = 290;
}
);
unicode = 0029;
},
{
color = 5;
glyphname = ampersand;
layers = (
{
layerId = master01;
paths = (
{
closed = 1;
nodes = (
"570 0 LINE",
"590 20 LINE",
"590 330 LINE",
"570 350 LINE",
"234 350 LINE",
"224 360 LINE",
"224 365 LINE",
"234 375 LINE",
"480 375 LINE",
"490 385 LINE",
"490 465 LINE",
"480 475 LINE",
"230 475 LINE",
"220 485 LINE",
"220 490 LINE",
"230 500 LINE",
"380 500 LINE",
"390 510 LINE",
"390 540 LINE SMOOTH",
"390 629 OFFCURVE",
"336 710 OFFCURVE",
"220 710 CURVE SMOOTH",
"92 710 OFFCURVE",
"20 620 OFFCURVE",
"20 510 CURVE SMOOTH",
"20 439 OFFCURVE",
"59 406 OFFCURVE",
"90 385 CURVE",
"95 375 LINE",
"90 365 LINE",
"40 334 OFFCURVE",
"-15 286 OFFCURVE",
"-15 175 CURVE SMOOTH",
"-15 34 OFFCURVE",
"92 0 OFFCURVE",
"239 0 CURVE SMOOTH"
);
}
);
width = 605;
}
);
unicode = 0026;
},
{
color = 5;
glyphname = dollar;
layers = (
{
layerId = master01;
paths = (
{
closed = 1;
nodes = (
"432 606 OFFCURVE",
"393 652 OFFCURVE",
"340 675 CURVE SMOOTH",
"340 710 LINE",
"170 710 LINE",
"170 680 LINE SMOOTH",
"86 656 OFFCURVE",
"25 578 OFFCURVE",
"25 496 CURVE SMOOTH",
"25 422 OFFCURVE",
"62 382 OFFCURVE",
"115 340 CURVE SMOOTH",
"15 250 LINE SMOOTH",
"15 153 OFFCURVE",
"73 54 OFFCURVE",
"170 22 CURVE SMOOTH",
"170 -10 LINE",
"340 -10 LINE",
"340 28 LINE SMOOTH",
"435 65 OFFCURVE",
"495 158 OFFCURVE",
"495 250 CURVE SMOOTH",
"495 364 OFFCURVE",
"428 424 OFFCURVE",
"365 480 CURVE SMOOTH",
"451 547 LINE SMOOTH"
);
}
